# xmcd
#
# Track frame offsets: 
#        150
#        21252
#        36982
#        60321
#        76063
#        100321
#        124179
#        139832
#        157382
#        179169
#        220613
#        242176
#        261206
#        272351
#        285118
#        298985
#        308162
#
# Disc length: 4410 seconds
#
# Revision: 0
# Processed by: cddbd v1.5.2PL0 Copyright (c) Steve Scherf et al.
# Submitted via: ExactAudioCopy v0.95b4
#
DISCID=fc113811
DTITLE=Elias Zaikos - Off The Box
DYEAR=2004
DGENRE=Blues
TTITLE0=Charlie's on the move
TTITLE1=Ice delivery
TTITLE2=Mediterranean Blood
TTITLE3=Extra Jalapenos
TTITLE4=Slabo Day
TTITLE5=Please Lord, Let my guitar talk
TTITLE6=Onion Stew
TTITLE7=Rivermoon Waltz
TTITLE8=Kuma-Goo
TTITLE9=Summertime
TTITLE10=Off the Box
TTITLE11=Steel string parade
TTITLE12=Read Roses for my love (part 1)
TTITLE13=Read Roses for my love (part 2)
TTITLE14=F.A.N.O.
TTITLE15=Lazy Swing
TTITLE16=Blues for Ronnie Earl (live)
EXTD=
EXTT0=
EXTT1=
EXTT2=
EXTT3=
EXTT4=
EXTT5=
EXTT6=
EXTT7=
EXTT8=
EXTT9=
EXTT10=
EXTT11=
EXTT12=
EXTT13=
EXTT14=
EXTT15=
EXTT16=
PLAYORDER=
